# xmcd CD database file
#
# Track frame offsets:
#	150
#	26117
#	42825
#	62900
#	84982
#	101372
#	114460
#	134737
#	157475
#	181112
#	195197
#	208005
#	230509
#	254020
#
# Disc length: 3973 seconds
#
# Revision: 10
# Processed by: cddbd v1.5PL3 Copyright (c) Steve Scherf et al.
# Submitted via: CDex 1.51
#
DISCID=c50f830e
DTITLE=JOHN WILLIAMS - GREATEST HITS 1969-1999 - Disc 1
DYEAR=1900
DGENRE=Soundtrack
TTITLE0=スター･ウォーズ
TTITLE1=E.T.
TTITLE2=スーパーマン
TTITLE3=インディ･ジョーンズ　魔宮の伝説
TTITLE4=続･激突！ カージャック
TTITLE5=ジョーズ
TTITLE6=オリンピック･ファンファーレ＆テーマ
TTITLE7=スター･ウォーズ　ジェダイの復讐
TTITLE8=華麗なる週末
TTITLE9=スター･ウォーズ　帝国の逆襲
TTITLE10=インディ･ジョーンズ　最後の聖戦
TTITLE11=太陽の帝国
TTITLE12=レイダース　失われたアーク
TTITLE13=未知との遭遇
EXTD=
EXTT0=
EXTT1=
EXTT2=
EXTT3=
EXTT4=
EXTT5=
EXTT6=
EXTT7=
EXTT8=
EXTT9=
EXTT10=
EXTT11=
EXTT12=
EXTT13=
PLAYORDER=
